<svg xmlns="http://www.w3.org/2000/svg" viewBox="0 0 256 256"><defs><linearGradient id="g" x1="0" y1="0" x2="1" y2="1"><stop stop-color="#7f1d1d"/><stop offset="1" stop-color="#111827"/></linearGradient></defs><rect width="256" height="256" rx="44" fill="url(#g)"/><path d="M45 207c7-51 158-51 166 0" fill="#1f2937"/><circle cx="128" cy="108" r="55" fill="#d9a173"/><path d="M70 106c0-61 116-68 117 1-22-20-39-32-62-30-21 1-38 13-55 29Z" fill="#251b2d"/><path d="M86 109h34M136 109h34" stroke="#111827" stroke-width="12" stroke-linecap="round"/><path d="M112 143c12 8 24 8 35-1" fill="none" stroke="#7f1d1d" stroke-width="6" stroke-linecap="round"/><path d="M41 54l22 15-13 22M206 45l-18 20 18 14" fill="none" stroke="#fb7185" stroke-width="7" stroke-linecap="round"/><text x="128" y="228" text-anchor="middle" fill="#fecdd3" font-family="sans-serif" font-weight="800" font-size="18">CRASHOUT</text></svg>